<svg width="137" height="29" viewBox="0 0 137 29" fill="none" xmlns="http://www.w3.org/2000/svg">
<path d="M11.2609 12.8703C12.9342 13.5841 14.1921 14.532 15.0346 15.7138C15.8889 16.8956 16.316 18.294 16.316 19.9088C16.316 22.2725 15.5612 24.1798 14.0517 25.6308C12.5539 27.0701 10.5647 27.7897 8.08397 27.7897C6.05962 27.7897 4.3629 27.2749 2.99383 26.2451C1.62476 25.2037 0.700343 23.7293 0.220583 21.822L2.99383 20.4529C3.36828 22.0092 3.98261 23.191 4.83681 23.9984C5.70272 24.7941 6.78511 25.192 8.08397 25.192C9.61687 25.192 10.8572 24.7532 11.805 23.8756C12.7529 22.9863 13.2268 21.8337 13.2268 20.4178C13.2268 19.271 12.8933 18.2764 12.2263 17.4339C11.571 16.5797 10.5764 15.8601 9.24242 15.275L6.11813 13.941C4.40971 13.2272 3.13425 12.3087 2.29174 11.1853C1.46094 10.062 1.04554 8.71632 1.04554 7.14832C1.04554 5.32289 1.72422 3.8134 3.08159 2.61985C4.43896 1.4263 6.17078 0.829526 8.27705 0.829526C9.82164 0.829526 11.1556 1.15717 12.279 1.81245C13.414 2.46773 14.2975 3.4331 14.9293 4.70856L12.4018 6.32337C11.8284 5.32874 11.1849 4.59155 10.4711 4.11179C9.75728 3.62033 8.94988 3.3746 8.04887 3.3746C6.90212 3.3746 5.96016 3.72564 5.22296 4.42773C4.49747 5.12982 4.13473 6.02498 4.13473 7.11322C4.13473 8.02593 4.41556 8.81578 4.97723 9.48277C5.5389 10.1498 6.41066 10.7407 7.59251 11.2555L11.2609 12.8703ZM21.8435 27.1403V1.44385H35.3938V4.23466H24.8976V11.6066H35.3938V14.45H24.8976V24.2968H35.3938V27.1403H21.8435ZM42.0271 27.1403V1.44385H48.0651C49.7852 1.44385 51.0431 1.54332 51.8388 1.74224C52.6462 1.92946 53.3542 2.25711 53.9626 2.72517C54.7232 3.32194 55.3142 4.12349 55.7354 5.12982C56.1567 6.12444 56.3673 7.23023 56.3673 8.44719C56.3673 10.5535 55.7764 12.1566 54.5945 13.2565C53.4244 14.3447 51.7043 14.8888 49.4342 14.8888H48.8901L58.7017 27.1403H54.8227L45.4498 14.8888H45.011V27.1403H42.0271ZM45.011 4.02403V12.6246H47.3455C49.7326 12.6246 51.3298 12.3204 52.1372 11.7119C52.9446 11.0917 53.3483 10.0152 53.3483 8.48229C53.3483 6.83238 52.9329 5.67979 52.1021 5.0245C51.2713 4.35752 49.6858 4.02403 47.3455 4.02403H45.011ZM70.0391 28.1408L59.1742 1.44385H62.4916L70.0391 21.1023L77.5514 1.44385H80.8512L70.0391 28.1408ZM85.0272 27.1403V1.44385H88.0813V27.1403H85.0272ZM116.585 7.58713C115.356 6.25316 114.045 5.27024 112.653 4.63836C111.261 3.99478 109.722 3.67298 108.037 3.67298C106.679 3.67298 105.351 3.94797 104.052 4.49794C102.765 5.04791 101.648 5.81435 100.7 6.79728C99.717 7.81531 98.9798 8.9562 98.4884 10.22C97.9969 11.472 97.7512 12.8586 97.7512 14.3798C97.7512 15.5734 97.8975 16.6733 98.19 17.6796C98.4825 18.686 98.9213 19.6104 99.5064 20.4529C100.536 21.9156 101.8 23.0448 103.298 23.8405C104.807 24.6245 106.434 25.0165 108.177 25.0165C109.815 25.0165 111.337 24.6771 112.741 23.9984C114.145 23.3198 115.426 22.3076 116.585 20.9619V25.0165C115.309 25.9409 113.934 26.643 112.46 27.1227C110.997 27.5908 109.482 27.8248 107.914 27.8248C106.557 27.8248 105.234 27.62 103.947 27.2105C102.66 26.8126 101.455 26.2276 100.331 25.4553C98.4591 24.1564 97.0257 22.5592 96.0311 20.6635C95.0482 18.7679 94.5567 16.685 94.5567 14.4149C94.5567 12.4374 94.8843 10.6412 95.5396 9.02641C96.2066 7.3999 97.2188 5.92552 98.5761 4.60325C99.8867 3.33949 101.338 2.39752 102.929 1.77735C104.52 1.14547 106.258 0.829526 108.142 0.829526C109.628 0.829526 111.067 1.05771 112.46 1.51406C113.852 1.95872 115.227 2.65496 116.585 3.60278V7.58713ZM123.253 27.1403V1.44385H136.803V4.23466H126.307V11.6066H136.803V14.45H126.307V24.2968H136.803V27.1403H123.253Z" fill="black"/>
<path d="M11.2609 12.8703L10.8192 13.8739L10.8307 13.8788L11.2609 12.8703ZM15.0346 15.7138L14.1419 16.3502L14.1461 16.3561L15.0346 15.7138ZM14.0517 25.6308L14.8114 26.4214L14.8115 26.4212L14.0517 25.6308ZM2.99383 26.2451L2.33003 27.1178L2.33479 27.1213L2.99383 26.2451ZM0.220583 21.822L-0.264758 20.8388L-1.05868 21.2308L-0.842698 22.0894L0.220583 21.822ZM2.99383 20.4529L4.05981 20.1964L3.73884 18.8624L2.50849 19.4698L2.99383 20.4529ZM4.83681 23.9984L4.08368 24.7952L4.08928 24.8005L4.09496 24.8058L4.83681 23.9984ZM11.805 23.8756L12.55 24.6801L12.5552 24.6751L11.805 23.8756ZM12.2263 17.4339L11.3564 18.1013L11.3615 18.1079L11.3667 18.1145L12.2263 17.4339ZM9.24242 15.275L9.68282 14.2709L9.67295 14.2667L9.24242 15.275ZM6.11813 13.941L6.54866 12.9327L6.5408 12.9294L6.11813 13.941ZM2.29174 11.1853L1.41021 11.8373L1.41462 11.8432L2.29174 11.1853ZM12.279 1.81245L11.7265 2.75951L11.7308 2.76197L12.279 1.81245ZM14.9293 4.70856L15.5196 5.6325L16.3483 5.10304L15.9118 4.22185L14.9293 4.70856ZM12.4018 6.32337L11.4519 6.87094L12.0251 7.86513L12.9921 7.2473L12.4018 6.32337ZM10.4711 4.11179L9.84926 5.0149L9.85946 5.02175L10.4711 4.11179ZM5.22296 4.42773L4.4668 3.63376L4.4605 3.63985L5.22296 4.42773ZM7.59251 11.2555L8.03424 10.2521L8.0304 10.2504L7.59251 11.2555ZM10.8307 13.8788C12.3652 14.5334 13.4427 15.3695 14.1419 16.3502L15.9274 15.0774C14.9416 13.6944 13.5033 12.6349 11.6911 11.8619L10.8307 13.8788ZM14.1461 16.3561C14.8507 17.331 15.2196 18.4986 15.2196 19.9088H17.4124C17.4124 18.0893 16.927 16.4603 15.9232 15.0715L14.1461 16.3561ZM15.2196 19.9088C15.2196 22.0164 14.5577 23.6236 13.2919 24.8404L14.8115 26.4212C16.5647 24.736 17.4124 22.5286 17.4124 19.9088H15.2196ZM13.292 24.8402C12.0372 26.0461 10.3401 26.6933 8.08397 26.6933V28.8861C10.7893 28.8861 13.0707 28.0941 14.8114 26.4214L13.292 24.8402ZM8.08397 26.6933C6.25271 26.6933 4.79911 26.231 3.65287 25.3689L2.33479 27.1213C3.9267 28.3187 5.86653 28.8861 8.08397 28.8861V26.6933ZM3.65762 25.3725C2.51442 24.5029 1.7121 23.257 1.28386 21.5545L-0.842698 22.0894C-0.311418 24.2016 0.735099 25.9045 2.33004 27.1178L3.65762 25.3725ZM0.705925 22.8051L3.47917 21.436L2.50849 19.4698L-0.264758 20.8388L0.705925 22.8051ZM1.92785 20.7094C2.33455 22.3997 3.02851 23.7979 4.08368 24.7952L5.58995 23.2016C4.93671 22.5842 4.40201 21.6187 4.05981 20.1964L1.92785 20.7094ZM4.09496 24.8058C5.18499 25.8074 6.54144 26.2884 8.08397 26.2884V24.0956C7.02878 24.0956 6.22046 23.7809 5.57867 23.1911L4.09496 24.8058ZM8.08397 26.2884C9.83833 26.2884 11.3626 25.7795 12.5499 24.6801L11.0601 23.0711C10.3519 23.7269 9.3954 24.0956 8.08397 24.0956V26.2884ZM12.5552 24.6751C13.745 23.5588 14.3232 22.1064 14.3232 20.4178H12.1304C12.1304 21.5609 11.7607 22.4137 11.0548 23.076L12.5552 24.6751ZM14.3232 20.4178C14.3232 19.0418 13.9169 17.8031 13.0859 16.7534L11.3667 18.1145C11.8696 18.7498 12.1304 19.5003 12.1304 20.4178H14.3232ZM13.0962 16.7666C12.2957 15.723 11.1288 14.9051 9.6828 14.2709L8.80204 16.2791C10.024 16.815 10.8463 17.4364 11.3564 18.1013L13.0962 16.7666ZM9.67295 14.2667L6.54865 12.9327L5.6876 14.9494L8.81189 16.2833L9.67295 14.2667ZM6.5408 12.9294C4.95685 12.2676 3.86248 11.4523 3.16887 10.5275L1.41462 11.8432C2.40602 13.165 3.86257 14.1869 5.69545 14.9527L6.5408 12.9294ZM3.17325 10.5334C2.49889 9.62157 2.14194 8.51167 2.14194 7.14832H-0.0508647C-0.0508647 8.92097 0.422987 10.5024 1.41023 11.8373L3.17325 10.5334ZM2.14194 7.14832C2.14194 5.63453 2.68763 4.42625 3.80559 3.44322L2.3576 1.79649C0.760816 3.20055 -0.0508647 5.01126 -0.0508647 7.14832H2.14194ZM3.80559 3.44322C4.93035 2.4542 6.3906 1.92593 8.27705 1.92593V-0.266875C5.95097 -0.266875 3.94758 0.398404 2.3576 1.79649L3.80559 3.44322ZM8.27705 1.92593C9.66414 1.92593 10.7999 2.21896 11.7265 2.7595L12.8314 0.865401C11.5113 0.0953712 9.97914 -0.266875 8.27705 -0.266875V1.92593ZM11.7308 2.76197C12.6624 3.29985 13.4023 4.09611 13.9469 5.19528L15.9118 4.22185C15.1926 2.7701 14.1655 1.63562 12.8271 0.862926L11.7308 2.76197ZM14.339 3.78463L11.8115 5.39944L12.9921 7.2473L15.5196 5.6325L14.339 3.78463ZM13.3517 5.77579C12.7214 4.68249 11.9739 3.80083 11.0827 3.20183L9.85946 5.02175C10.3958 5.38227 10.9355 5.975 11.4519 6.87094L13.3517 5.77579ZM11.0928 3.20874C10.1886 2.58615 9.16258 2.2782 8.04887 2.2782V4.471C8.73718 4.471 9.32596 4.65451 9.8493 5.01484L11.0928 3.20874ZM8.04887 2.2782C6.65914 2.2782 5.43419 2.71249 4.46682 3.63378L5.9791 5.22168C6.48612 4.7388 7.14511 4.471 8.04887 4.471V2.2782ZM4.4605 3.63985C3.50379 4.56571 3.03832 5.75366 3.03832 7.11322H5.23113C5.23113 6.2963 5.49116 5.69393 5.98542 5.21561L4.4605 3.63985ZM3.03832 7.11322C3.03832 8.27125 3.40219 9.31453 4.13858 10.189L5.81588 8.77654C5.42893 8.31703 5.23113 7.78061 5.23113 7.11322H3.03832ZM4.13858 10.189C4.84849 11.032 5.8861 11.7081 7.15462 12.2607L8.0304 10.2504C6.93523 9.77327 6.22931 9.26748 5.81588 8.77654L4.13858 10.189ZM7.15079 12.259L10.8192 13.8738L11.7026 11.8669L8.03424 10.2521L7.15079 12.259ZM21.8435 27.1403H20.7471V28.2367H21.8435V27.1403ZM21.8435 1.44385V0.347452H20.7471V1.44385H21.8435ZM35.3938 1.44385H36.4902V0.347452H35.3938V1.44385ZM35.3938 4.23466V5.33106H36.4902V4.23466H35.3938ZM24.8976 4.23466V3.13825H23.8012V4.23466H24.8976ZM24.8976 11.6066H23.8012V12.703H24.8976V11.6066ZM35.3938 11.6066H36.4902V10.5102H35.3938V11.6066ZM35.3938 14.45V15.5464H36.4902V14.45H35.3938ZM24.8976 14.45V13.3536H23.8012V14.45H24.8976ZM24.8976 24.2968H23.8012V25.3932H24.8976V24.2968ZM35.3938 24.2968H36.4902V23.2004H35.3938V24.2968ZM35.3938 27.1403V28.2367H36.4902V27.1403H35.3938ZM22.9399 27.1403V1.44385H20.7471V27.1403H22.9399ZM21.8435 2.54026H35.3938V0.347452H21.8435V2.54026ZM34.2974 1.44385V4.23466H36.4902V1.44385H34.2974ZM35.3938 3.13825H24.8976V5.33106H35.3938V3.13825ZM23.8012 4.23466V11.6066H25.994V4.23466H23.8012ZM24.8976 12.703H35.3938V10.5102H24.8976V12.703ZM34.2974 11.6066V14.45H36.4902V11.6066H34.2974ZM35.3938 13.3536H24.8976V15.5464H35.3938V13.3536ZM23.8012 14.45V24.2968H25.994V14.45H23.8012ZM24.8976 25.3932H35.3938V23.2004H24.8976V25.3932ZM34.2974 24.2968V27.1403H36.4902V24.2968H34.2974ZM35.3938 26.0439H21.8435V28.2367H35.3938V26.0439ZM42.0271 27.1403H40.9307V28.2367H42.0271V27.1403ZM42.0271 1.44385V0.347452H40.9307V1.44385H42.0271ZM51.8388 1.74224L51.5729 2.80591L51.582 2.80818L51.5912 2.8103L51.8388 1.74224ZM53.9626 2.72517L54.6395 1.86254L54.6311 1.85613L53.9626 2.72517ZM55.7354 5.12982L54.724 5.55318L54.7258 5.55741L55.7354 5.12982ZM54.5945 13.2565L55.3412 14.0594L55.3415 14.0591L54.5945 13.2565ZM48.8901 14.8888V13.7924H46.6073L48.0343 15.5742L48.8901 14.8888ZM58.7017 27.1403V28.2367H60.9845L59.5575 26.4549L58.7017 27.1403ZM54.8227 27.1403L53.9519 27.8065L54.281 28.2367H54.8227V27.1403ZM45.4498 14.8888L46.3206 14.2227L45.9915 13.7924H45.4498V14.8888ZM45.011 14.8888V13.7924H43.9146V14.8888H45.011ZM45.011 27.1403V28.2367H46.1074V27.1403H45.011ZM45.011 4.02403V2.92763H43.9146V4.02403H45.011ZM45.011 12.6246H43.9146V13.721H45.011V12.6246ZM52.1372 11.7119L52.7971 12.5875L52.8051 12.5814L52.1372 11.7119ZM52.1021 5.0245L51.4157 5.87951L51.4231 5.88536L52.1021 5.0245ZM43.1235 27.1403V1.44385H40.9307V27.1403H43.1235ZM42.0271 2.54026H48.0651V0.347452H42.0271V2.54026ZM48.0651 2.54026C49.7711 2.54026 50.9154 2.64153 51.5729 2.80591L52.1047 0.678576C51.1708 0.4451 49.7993 0.347452 48.0651 0.347452V2.54026ZM51.5912 2.8103C52.258 2.96494 52.8198 3.22928 53.2942 3.5942L54.6311 1.85613C53.8886 1.28493 53.0344 0.893992 52.0865 0.674179L51.5912 2.8103ZM53.2858 3.58775C53.8812 4.05486 54.3656 4.69687 54.724 5.55318L56.7468 4.70646C56.2627 3.55011 55.5653 2.58902 54.6394 1.86258L53.2858 3.58775ZM54.7258 5.55741C55.083 6.40065 55.2709 7.35857 55.2709 8.44719H57.4637C57.4637 7.1019 57.2304 5.84824 56.745 4.70223L54.7258 5.55741ZM55.2709 8.44719C55.2709 10.3467 54.7439 11.6197 53.8476 12.4539L55.3415 14.0591C56.8088 12.6934 57.4637 10.7602 57.4637 8.44719H55.2709ZM53.8479 12.4536C52.9522 13.2866 51.5436 13.7924 49.4342 13.7924V15.9852C51.8649 15.9852 53.8966 15.4028 55.3412 14.0594L53.8479 12.4536ZM49.4342 13.7924H48.8901V15.9852H49.4342V13.7924ZM48.0343 15.5742L57.846 27.8257L59.5575 26.4549L49.7458 14.2035L48.0343 15.5742ZM58.7017 26.0439H54.8227V28.2367H58.7017V26.0439ZM55.6935 26.4741L46.3206 14.2227L44.579 15.555L53.9519 27.8065L55.6935 26.4741ZM45.4498 13.7924H45.011V15.9852H45.4498V13.7924ZM43.9146 14.8888V27.1403H46.1074V14.8888H43.9146ZM45.011 26.0439H42.0271V28.2367H45.011V26.0439ZM43.9146 4.02403V12.6246H46.1074V4.02403H43.9146ZM45.011 13.721H47.3455V11.5282H45.011V13.721ZM47.3455 13.721C48.5791 13.721 49.6493 13.6429 50.5389 13.4735C51.4132 13.3069 52.2018 13.0361 52.7971 12.5875L51.4773 10.8363C51.2652 10.9962 50.8515 11.1817 50.1286 11.3194C49.4209 11.4542 48.4989 11.5282 47.3455 11.5282V13.721ZM52.8051 12.5814C53.9977 11.6653 54.4447 10.1783 54.4447 8.48229H52.2519C52.2519 9.85204 51.8915 10.5181 51.4693 10.8424L52.8051 12.5814ZM54.4447 8.48229C54.4447 6.6865 53.9953 5.12131 52.7811 4.16365L51.4231 5.88536C51.8706 6.23827 52.2519 6.97826 52.2519 8.48229H54.4447ZM52.7885 4.16953C52.1869 3.6866 51.3968 3.38659 50.5155 3.20122C49.6238 3.01367 48.5611 2.92763 47.3455 2.92763V5.12043C48.4701 5.12043 49.3703 5.20114 50.0642 5.34707C50.7684 5.4952 51.1865 5.69542 51.4157 5.87947L52.7885 4.16953ZM47.3455 2.92763H45.011V5.12043H47.3455V2.92763ZM70.0391 28.1408L69.0235 28.5541L70.0415 31.0555L71.0553 28.5523L70.0391 28.1408ZM59.1742 1.44385V0.347452H57.5443L58.1587 1.85714L59.1742 1.44385ZM62.4916 1.44385L63.5152 1.05088L63.2451 0.347452H62.4916V1.44385ZM70.0391 21.1023L69.0155 21.4953L70.0415 24.1675L71.0632 21.4937L70.0391 21.1023ZM77.5514 1.44385V0.347452H76.7967L76.5272 1.05248L77.5514 1.44385ZM80.8512 1.44385L81.8674 1.85542L82.4782 0.347452H80.8512V1.44385ZM71.0546 27.7275L60.1898 1.03057L58.1587 1.85714L69.0235 28.5541L71.0546 27.7275ZM59.1742 2.54026H62.4916V0.347452H59.1742V2.54026ZM61.4681 1.83683L69.0155 21.4953L71.0626 20.7094L63.5152 1.05088L61.4681 1.83683ZM71.0632 21.4937L78.5756 1.83523L76.5272 1.05248L69.0149 20.711L71.0632 21.4937ZM77.5514 2.54026H80.8512V0.347452H77.5514V2.54026ZM79.835 1.03229L69.0228 27.7292L71.0553 28.5523L81.8674 1.85542L79.835 1.03229ZM85.0272 27.1403H83.9308V28.2367H85.0272V27.1403ZM85.0272 1.44385V0.347452H83.9308V1.44385H85.0272ZM88.0813 1.44385H89.1777V0.347452H88.0813V1.44385ZM88.0813 27.1403V28.2367H89.1777V27.1403H88.0813ZM86.1236 27.1403V1.44385H83.9308V27.1403H86.1236ZM85.0272 2.54026H88.0813V0.347452H85.0272V2.54026ZM86.9849 1.44385V27.1403H89.1777V1.44385H86.9849ZM88.0813 26.0439H85.0272V28.2367H88.0813V26.0439ZM116.585 7.58713L115.778 8.32991L117.681 10.3959V7.58713H116.585ZM112.653 4.63836L112.193 5.63362L112.2 5.63677L112.653 4.63836ZM104.052 4.49794L103.625 3.48831L103.622 3.48971L104.052 4.49794ZM100.7 6.79728L101.489 7.55883L101.489 7.55833L100.7 6.79728ZM98.4884 10.22L99.509 10.6206L99.5102 10.6173L98.4884 10.22ZM98.19 17.6796L97.1372 17.9857L98.19 17.6796ZM99.5064 20.4529L98.6058 21.0783L98.6099 21.084L99.5064 20.4529ZM103.298 23.8405L102.783 24.8088L102.792 24.8135L103.298 23.8405ZM116.585 20.9619H117.681V18.0078L115.754 20.2466L116.585 20.9619ZM116.585 25.0165L117.228 25.9042L117.681 25.5759V25.0165H116.585ZM112.46 27.1227L112.794 28.167L112.799 28.1653L112.46 27.1227ZM103.947 27.2105L104.28 26.1657L104.271 26.163L103.947 27.2105ZM100.331 25.4553L99.7064 26.3561L99.7102 26.3588L100.331 25.4553ZM96.0311 20.6635L95.0577 21.1682L95.0602 21.1729L96.0311 20.6635ZM95.5396 9.02641L94.5252 8.61042L94.5237 8.61414L95.5396 9.02641ZM98.5761 4.60325L97.8151 3.814L97.8111 3.81789L98.5761 4.60325ZM102.929 1.77735L103.327 2.79894L103.334 2.79636L102.929 1.77735ZM112.46 1.51406L112.118 2.55597L112.126 2.55851L112.46 1.51406ZM116.585 3.60278H117.681V3.03112L117.212 2.70384L116.585 3.60278ZM117.391 6.84434C116.081 5.42211 114.655 4.3427 113.106 3.63994L112.2 5.63677C113.436 6.19778 114.631 7.08421 115.778 8.32991L117.391 6.84434ZM113.113 3.64311C111.563 2.92656 109.865 2.57658 108.037 2.57658V4.76939C109.579 4.76939 110.958 5.06299 112.193 5.6336L113.113 3.64311ZM108.037 2.57658C106.527 2.57658 105.054 2.88337 103.625 3.48831L104.48 5.50756C105.649 5.01257 106.832 4.76939 108.037 4.76939V2.57658ZM103.622 3.48971C102.203 4.0958 100.963 4.9451 99.9107 6.03623L101.489 7.55833C102.333 6.68361 103.327 6.00001 104.483 5.50616L103.622 3.48971ZM99.9112 6.03572C98.8317 7.15381 98.013 8.41725 97.4665 9.82257L99.5102 10.6173C99.9466 9.49515 100.602 8.4768 101.489 7.55883L99.9112 6.03572ZM97.4678 9.81935C96.9201 11.2146 96.6548 12.7394 96.6548 14.3798H98.8476C98.8476 12.9779 99.0737 11.7294 99.509 10.6206L97.4678 9.81935ZM96.6548 14.3798C96.6548 15.6628 96.812 16.8672 97.1372 17.9857L99.2428 17.3736C98.9829 16.4794 98.8476 15.4839 98.8476 14.3798H96.6548ZM97.1372 17.9857C97.4621 19.1035 97.9516 20.1362 98.6059 21.0783L100.407 19.8275C99.8911 19.0846 99.503 18.2684 99.2428 17.3736L97.1372 17.9857ZM98.6099 21.084C99.7332 22.6796 101.125 23.9278 102.783 24.8087L103.812 22.8722C102.475 22.1617 101.339 21.1515 100.403 19.8217L98.6099 21.084ZM102.792 24.8135C104.462 25.6806 106.262 26.1129 108.177 26.1129V23.9201C106.605 23.9201 105.152 23.5683 103.803 22.8675L102.792 24.8135ZM108.177 26.1129C109.972 26.1129 111.657 25.7398 113.218 24.9856L112.264 23.0113C111.016 23.6144 109.659 23.9201 108.177 23.9201V26.1129ZM113.218 24.9856C114.775 24.233 116.173 23.1211 117.416 21.6772L115.754 20.2466C114.68 21.4941 113.515 22.4065 112.264 23.0113L113.218 24.9856ZM115.488 20.9619V25.0165H117.681V20.9619H115.488ZM115.941 24.1287C114.757 24.987 113.484 25.6364 112.121 26.0801L112.799 28.1653C114.384 27.6496 115.861 26.8947 117.228 25.9042L115.941 24.1287ZM112.126 26.0785C110.773 26.5113 109.371 26.7284 107.914 26.7284V28.9212C109.593 28.9212 111.221 28.6703 112.794 28.167L112.126 26.0785ZM107.914 26.7284C106.669 26.7284 105.459 26.5409 104.28 26.1657L103.615 28.2553C105.01 28.6992 106.444 28.9212 107.914 28.9212V26.7284ZM104.271 26.163C103.091 25.7982 101.986 25.2621 100.953 24.5518L99.7102 26.3588C100.924 27.1931 102.229 27.8271 103.623 28.258L104.271 26.163ZM100.956 24.5544C99.2196 23.3496 97.9092 21.8833 97.002 20.1541L95.0602 21.1729C96.1422 23.2351 97.6986 24.9632 99.7064 26.3561L100.956 24.5544ZM97.0044 20.1588C96.1074 18.4289 95.6531 16.5208 95.6531 14.4149H93.4603C93.4603 16.8493 93.9889 19.1068 95.0577 21.1682L97.0044 20.1588ZM95.6531 14.4149C95.6531 12.5598 95.9601 10.9061 96.5556 9.43867L94.5237 8.61414C93.8086 10.3764 93.4603 12.315 93.4603 14.4149H95.6531ZM96.554 9.44239C97.1597 7.96534 98.0829 6.61439 99.3412 5.38861L97.8111 3.81789C96.3547 5.23665 95.2535 6.83447 94.5252 8.61042L96.554 9.44239ZM99.3372 5.39249C100.55 4.22269 101.88 3.36301 103.327 2.79891L102.531 0.755776C100.796 1.43204 99.2231 2.45629 97.8151 3.81401L99.3372 5.39249ZM103.334 2.79636C104.784 2.2205 106.383 1.92593 108.142 1.92593V-0.266875C106.134 -0.266875 104.257 0.0704288 102.524 0.758332L103.334 2.79636ZM108.142 1.92593C109.514 1.92593 110.838 2.13622 112.118 2.55594L112.801 0.472187C111.297 -0.0208077 109.743 -0.266875 108.142 -0.266875V1.92593ZM112.126 2.55851C113.401 2.96559 114.678 3.60867 115.957 4.50171L117.212 2.70384C115.777 1.70125 114.304 0.951844 112.793 0.46962L112.126 2.55851ZM115.488 3.60278V7.58713H117.681V3.60278H115.488ZM123.253 27.1403H122.157V28.2367H123.253V27.1403ZM123.253 1.44385V0.347452H122.157V1.44385H123.253ZM136.803 1.44385H137.9V0.347452H136.803V1.44385ZM136.803 4.23466V5.33106H137.9V4.23466H136.803ZM126.307 4.23466V3.13825H125.211V4.23466H126.307ZM126.307 11.6066H125.211V12.703H126.307V11.6066ZM136.803 11.6066H137.9V10.5102H136.803V11.6066ZM136.803 14.45V15.5464H137.9V14.45H136.803ZM126.307 14.45V13.3536H125.211V14.45H126.307ZM126.307 24.2968H125.211V25.3932H126.307V24.2968ZM136.803 24.2968H137.9V23.2004H136.803V24.2968ZM136.803 27.1403V28.2367H137.9V27.1403H136.803ZM124.35 27.1403V1.44385H122.157V27.1403H124.35ZM123.253 2.54026H136.803V0.347452H123.253V2.54026ZM135.707 1.44385V4.23466H137.9V1.44385H135.707ZM136.803 3.13825H126.307V5.33106H136.803V3.13825ZM125.211 4.23466V11.6066H127.404V4.23466H125.211ZM126.307 12.703H136.803V10.5102H126.307V12.703ZM135.707 11.6066V14.45H137.9V11.6066H135.707ZM136.803 13.3536H126.307V15.5464H136.803V13.3536ZM125.211 14.45V24.2968H127.404V14.45H125.211ZM126.307 25.3932H136.803V23.2004H126.307V25.3932ZM135.707 24.2968V27.1403H137.9V24.2968H135.707ZM136.803 26.0439H123.253V28.2367H136.803V26.0439Z" fill="black"/>
</svg>
