<svg width="78" height="67" viewBox="0 0 78 67" fill="none" xmlns="http://www.w3.org/2000/svg">
<path fill-rule="evenodd" clip-rule="evenodd" d="M74.6344 0.276733H25.9598C14.3108 0.276733 4.86746 9.47682 4.86746 20.8257C4.86746 25.5301 6.49015 29.8653 9.21997 33.329L12.678 20.8257H54.3533C59.3604 20.8257 64.0022 22.3496 67.8166 24.9474L74.6344 0.276733ZM38.9397 17.6643C42.524 17.6643 45.4296 14.8335 45.4296 11.3416C45.4296 7.8496 42.524 5.0188 38.9397 5.0188C35.3554 5.0188 32.4497 7.8496 32.4497 11.3416C32.4497 14.8335 35.3554 17.6643 38.9397 17.6643Z" fill="#9A7DED"/>
<path d="M0 66.6657H54.3533C67.3464 66.6657 77.8793 56.404 77.8793 43.7457C77.8793 35.9655 73.9003 29.0907 67.8166 24.9474L63.277 41.3746H45.4296V60.3429H32.4497V41.3746H25.9598C19.1396 41.3746 13.0755 38.2211 9.21997 33.329L0 66.6657Z" fill="#9A7DED"/>
<path d="M54.3533 20.8257H12.678L9.21997 33.329C13.0755 38.2211 19.1396 41.3746 25.9598 41.3746H32.4497V23.9871H45.4296V41.3746H63.277L67.8166 24.9474C64.0022 22.3496 59.3604 20.8257 54.3533 20.8257Z" fill="#6240C4"/>
</svg>
