<svg width="106" height="23" viewBox="0 0 106 23" fill="none" xmlns="http://www.w3.org/2000/svg">
<path d="M0.28953 22V1.65925H2.70708V22H0.28953ZM12.3206 22V3.96564H6.56849V1.65925H20.4902V3.96564H14.7659V22H12.3206ZM24.3239 22V1.65925H35.05V3.86839H26.7414V9.70385H35.05V11.9547H26.7414V19.7492H35.05V22H24.3239ZM49.7765 22.792L43.4547 8.17551L40.8982 22H38.5363L42.6628 0.853398L49.7765 17.679L56.8902 0.853398L61.0167 22H58.6547L56.0704 8.17551L49.7765 22.792ZM81.2441 6.20257L78.0068 13.6914H84.4814L81.2441 6.20257ZM81.2441 0.853398L90.4974 22H87.8715L85.2316 15.7616H77.2843L74.6444 22H72.0185L81.2441 0.853398ZM101.139 10.7042C102.464 11.2692 103.459 12.0195 104.126 12.955C104.802 13.8906 105.141 14.9974 105.141 16.2757C105.141 18.1467 104.543 19.6566 103.348 20.8051C102.163 21.9444 100.588 22.5141 98.6243 22.5141C97.0218 22.5141 95.6788 22.1065 94.595 21.2914C93.5113 20.467 92.7796 19.2999 92.3998 17.7901L94.595 16.7064C94.8914 17.9383 95.3777 18.8739 96.0539 19.513C96.7393 20.1428 97.5961 20.4578 98.6243 20.4578C99.8377 20.4578 100.82 20.1104 101.57 19.4157C102.32 18.7118 102.695 17.7994 102.695 16.6786C102.695 15.7709 102.431 14.9836 101.903 14.3166C101.385 13.6405 100.597 13.0708 99.5413 12.6077L97.0682 11.5517C95.7158 10.9867 94.7062 10.2596 94.0393 9.37039C93.3816 8.48118 93.0528 7.41598 93.0528 6.17478C93.0528 4.72981 93.59 3.53493 94.6645 2.59014C95.739 1.64535 97.1098 1.17296 98.7771 1.17296C99.9998 1.17296 101.056 1.43231 101.945 1.95102C102.843 2.46973 103.543 3.2339 104.043 4.24352L102.042 5.52177C101.588 4.73444 101.079 4.1509 100.514 3.77113C99.9488 3.3821 99.3097 3.18758 98.5965 3.18758C97.6888 3.18758 96.9431 3.46546 96.3596 4.02122C95.7853 4.57698 95.4981 5.28557 95.4981 6.147C95.4981 6.86948 95.7204 7.49471 96.1651 8.02268C96.6097 8.55065 97.2997 9.01841 98.2353 9.42597L101.139 10.7042Z" fill="black"/>
<path d="M0.289531 22H-0.25867V22.5482H0.289531V22ZM0.289531 1.65925V1.11105H-0.25867V1.65925H0.289531ZM2.70708 1.65925H3.25528V1.11105H2.70708V1.65925ZM2.70708 22V22.5482H3.25528V22H2.70708ZM0.837731 22V1.65925H-0.25867V22H0.837731ZM0.289531 2.20745H2.70708V1.11105H0.289531V2.20745ZM2.15888 1.65925V22H3.25528V1.65925H2.15888ZM2.70708 21.4518H0.289531V22.5482H2.70708V21.4518ZM12.3206 22H11.7724V22.5482H12.3206V22ZM12.3206 3.96564H12.8688V3.41744H12.3206V3.96564ZM6.56849 3.96564H6.02029V4.51385H6.56849V3.96564ZM6.56849 1.65925V1.11105H6.02029V1.65925H6.56849ZM20.4902 1.65925H21.0384V1.11105H20.4902V1.65925ZM20.4902 3.96564V4.51385H21.0384V3.96564H20.4902ZM14.7659 3.96564V3.41744H14.2177V3.96564H14.7659ZM14.7659 22V22.5482H15.3141V22H14.7659ZM12.8688 22V3.96564H11.7724V22H12.8688ZM12.3206 3.41744H6.56849V4.51385H12.3206V3.41744ZM7.11669 3.96564V1.65925H6.02029V3.96564H7.11669ZM6.56849 2.20745H20.4902V1.11105H6.56849V2.20745ZM19.942 1.65925V3.96564H21.0384V1.65925H19.942ZM20.4902 3.41744H14.7659V4.51385H20.4902V3.41744ZM14.2177 3.96564V22H15.3141V3.96564H14.2177ZM14.7659 21.4518H12.3206V22.5482H14.7659V21.4518ZM24.3239 22H23.7757V22.5482H24.3239V22ZM24.3239 1.65925V1.11105H23.7757V1.65925H24.3239ZM35.05 1.65925H35.5982V1.11105H35.05V1.65925ZM35.05 3.86839V4.41659H35.5982V3.86839H35.05ZM26.7414 3.86839V3.32019H26.1932V3.86839H26.7414ZM26.7414 9.70385H26.1932V10.252H26.7414V9.70385ZM35.05 9.70385H35.5982V9.15565H35.05V9.70385ZM35.05 11.9547V12.5029H35.5982V11.9547H35.05ZM26.7414 11.9547V11.4065H26.1932V11.9547H26.7414ZM26.7414 19.7492H26.1932V20.2974H26.7414V19.7492ZM35.05 19.7492H35.5982V19.201H35.05V19.7492ZM35.05 22V22.5482H35.5982V22H35.05ZM24.8721 22V1.65925H23.7757V22H24.8721ZM24.3239 2.20745H35.05V1.11105H24.3239V2.20745ZM34.5018 1.65925V3.86839H35.5982V1.65925H34.5018ZM35.05 3.32019H26.7414V4.41659H35.05V3.32019ZM26.1932 3.86839V9.70385H27.2896V3.86839H26.1932ZM26.7414 10.252H35.05V9.15565H26.7414V10.252ZM34.5018 9.70385V11.9547H35.5982V9.70385H34.5018ZM35.05 11.4065H26.7414V12.5029H35.05V11.4065ZM26.1932 11.9547V19.7492H27.2896V11.9547H26.1932ZM26.7414 20.2974H35.05V19.201H26.7414V20.2974ZM34.5018 19.7492V22H35.5982V19.7492H34.5018ZM35.05 21.4518H24.3239V22.5482H35.05V21.4518ZM49.7765 22.792L49.2733 23.0096L49.7776 24.1755L50.28 23.0088L49.7765 22.792ZM43.4547 8.17551L43.9579 7.95789L43.2431 6.30523L42.9157 8.07583L43.4547 8.17551ZM40.8982 22V22.5482H41.3544L41.4373 22.0997L40.8982 22ZM38.5363 22L37.9982 21.895L37.8707 22.5482H38.5363V22ZM42.6628 0.853398L43.1677 0.63992L42.4686 -1.01368L42.1247 0.748404L42.6628 0.853398ZM49.7765 17.679L49.2715 17.8925L49.7765 19.0867L50.2814 17.8925L49.7765 17.679ZM56.8902 0.853398L57.4282 0.748404L57.0844 -1.01368L56.3852 0.63992L56.8902 0.853398ZM61.0167 22V22.5482H61.6822L61.5547 21.895L61.0167 22ZM58.6547 22L58.1158 22.1007L58.1995 22.5482H58.6547V22ZM56.0704 8.17551L56.6093 8.07478L56.2786 6.30591L55.5669 7.9587L56.0704 8.17551ZM50.2796 22.5743L43.9579 7.95789L42.9516 8.39313L49.2733 23.0096L50.2796 22.5743ZM42.9157 8.07583L40.3592 21.9003L41.4373 22.0997L43.9938 8.2752L42.9157 8.07583ZM40.8982 21.4518H38.5363V22.5482H40.8982V21.4518ZM39.0743 22.105L43.2008 0.958393L42.1247 0.748404L37.9982 21.895L39.0743 22.105ZM42.1578 1.06688L49.2715 17.8925L50.2814 17.4655L43.1677 0.63992L42.1578 1.06688ZM50.2814 17.8925L57.3951 1.06688L56.3852 0.63992L49.2715 17.4655L50.2814 17.8925ZM56.3521 0.958393L60.4786 22.105L61.5547 21.895L57.4282 0.748404L56.3521 0.958393ZM61.0167 21.4518H58.6547V22.5482H61.0167V21.4518ZM59.1936 21.8993L56.6093 8.07478L55.5316 8.27625L58.1158 22.1007L59.1936 21.8993ZM55.5669 7.9587L49.273 22.5751L50.28 23.0088L56.5739 8.39233L55.5669 7.9587ZM81.2441 6.20257L81.7473 5.98505L81.2441 4.821L80.7409 5.98505L81.2441 6.20257ZM78.0068 13.6914L77.5036 13.4739L77.1726 14.2396H78.0068V13.6914ZM84.4814 13.6914V14.2396H85.3156L84.9846 13.4739L84.4814 13.6914ZM81.2441 0.853398L81.7463 0.633635L81.2433 -0.515814L80.7416 0.634189L81.2441 0.853398ZM90.4974 22V22.5482H91.3357L90.9997 21.7802L90.4974 22ZM87.8715 22L87.3666 22.2136L87.5082 22.5482H87.8715V22ZM85.2316 15.7616L85.7365 15.548L85.5949 15.2134H85.2316V15.7616ZM77.2843 15.7616V15.2134H76.921L76.7794 15.548L77.2843 15.7616ZM74.6444 22V22.5482H75.0077L75.1493 22.2136L74.6444 22ZM72.0185 22L71.516 21.7808L71.1812 22.5482H72.0185V22ZM80.7409 5.98505L77.5036 13.4739L78.51 13.9089L81.7473 6.42009L80.7409 5.98505ZM78.0068 14.2396H84.4814V13.1432H78.0068V14.2396ZM84.9846 13.4739L81.7473 5.98505L80.7409 6.42009L83.9782 13.9089L84.9846 13.4739ZM80.7418 1.07316L89.9952 22.2198L90.9997 21.7802L81.7463 0.633635L80.7418 1.07316ZM90.4974 21.4518H87.8715V22.5482H90.4974V21.4518ZM88.3763 21.7864L85.7365 15.548L84.7268 15.9753L87.3666 22.2136L88.3763 21.7864ZM85.2316 15.2134H77.2843V16.3098H85.2316V15.2134ZM76.7794 15.548L74.1396 21.7864L75.1493 22.2136L77.7891 15.9753L76.7794 15.548ZM74.6444 21.4518H72.0185V22.5482H74.6444V21.4518ZM72.5209 22.2192L81.7465 1.07261L80.7416 0.634189L71.516 21.7808L72.5209 22.2192ZM101.139 10.7042L100.918 11.206L100.924 11.2085L101.139 10.7042ZM104.126 12.955L103.68 13.2733L103.682 13.2762L104.126 12.955ZM103.348 20.8051L103.728 21.2004L103.728 21.2003L103.348 20.8051ZM94.595 21.2914L94.2631 21.7277L94.2655 21.7295L94.595 21.2914ZM92.3998 17.7901L92.1571 17.2986L91.7602 17.4945L91.8682 17.9239L92.3998 17.7901ZM94.595 16.7064L95.128 16.5782L94.9675 15.9111L94.3524 16.2148L94.595 16.7064ZM96.0539 19.513L95.6773 19.9114L95.683 19.9166L96.0539 19.513ZM101.57 19.4157L101.942 19.818L101.945 19.8155L101.57 19.4157ZM101.903 14.3166L101.468 14.6503L101.473 14.6569L101.903 14.3166ZM99.5413 12.6077L99.7615 12.1056L99.7565 12.1035L99.5413 12.6077ZM97.0682 11.5517L97.2834 11.0476L97.2795 11.0459L97.0682 11.5517ZM94.0393 9.37039L93.5985 9.69638L93.6007 9.69931L94.0393 9.37039ZM101.945 1.95102L101.669 2.42455L101.671 2.42578L101.945 1.95102ZM104.043 4.24352L104.338 4.70549L104.752 4.44076L104.534 4.00016L104.043 4.24352ZM102.042 5.52177L101.567 5.79556L101.854 6.29265L102.337 5.98373L102.042 5.52177ZM100.514 3.77113L100.203 4.22268L100.208 4.22611L100.514 3.77113ZM96.3596 4.02122L95.9815 3.62424L95.9783 3.62728L96.3596 4.02122ZM98.2353 9.42597L98.4561 8.92422L98.4542 8.92339L98.2353 9.42597ZM100.924 11.2085C102.179 11.7439 103.085 12.4383 103.68 13.2733L104.573 12.6368C103.834 11.6007 102.748 10.7946 101.354 10.2L100.924 11.2085ZM103.682 13.2762C104.283 14.1082 104.592 15.0998 104.592 16.2757H105.689C105.689 14.8951 105.322 13.6729 104.571 12.6339L103.682 13.2762ZM104.592 16.2757C104.592 18.0187 104.041 19.3785 102.968 20.4099L103.728 21.2003C105.045 19.9347 105.689 18.2748 105.689 16.2757H104.592ZM102.968 20.4098C101.904 21.4324 100.476 21.9659 98.6243 21.9659V23.0623C100.7 23.0623 102.421 22.4564 103.728 21.2004L102.968 20.4098ZM98.6243 21.9659C97.1184 21.9659 95.8969 21.5846 94.9246 20.8533L94.2655 21.7295C95.4607 22.6284 96.9253 23.0623 98.6243 23.0623V21.9659ZM94.9269 20.8551C93.9561 20.1166 93.2854 19.0638 92.9314 17.6564L91.8682 17.9239C92.2737 19.5361 93.0665 20.8174 94.2631 21.7277L94.9269 20.8551ZM92.6425 18.2817L94.8377 17.198L94.3524 16.2148L92.1571 17.2986L92.6425 18.2817ZM94.062 16.8346C94.3746 18.1336 94.9007 19.1773 95.6773 19.9114L96.4305 19.1146C95.8548 18.5704 95.4083 17.7431 95.128 16.5782L94.062 16.8346ZM95.683 19.9166C96.4805 20.6495 97.4743 21.006 98.6243 21.006V19.9096C97.718 19.9096 96.9982 19.6362 96.4248 19.1093L95.683 19.9166ZM98.6243 21.006C99.9484 21.006 101.072 20.6236 101.942 19.818L101.197 19.0135C100.567 19.5973 99.727 19.9096 98.6243 19.9096V21.006ZM101.945 19.8155C102.816 18.998 103.243 17.9358 103.243 16.6786H102.147C102.147 17.663 101.824 18.4255 101.195 19.0159L101.945 19.8155ZM103.243 16.6786C103.243 15.6562 102.943 14.7469 102.333 13.9764L101.473 14.6569C101.919 15.2202 102.147 15.8855 102.147 16.6786H103.243ZM102.338 13.983C101.747 13.2121 100.873 12.5933 99.7615 12.1056L99.3211 13.1097C100.321 13.5483 101.022 14.0688 101.468 14.6503L102.338 13.983ZM99.7565 12.1035L97.2834 11.0476L96.8529 12.0559L99.326 13.1119L99.7565 12.1035ZM97.2795 11.0459C95.9894 10.5069 95.0703 9.83143 94.4778 9.04147L93.6007 9.69931C94.3421 10.6878 95.4422 11.4665 96.8568 12.0576L97.2795 11.0459ZM94.48 9.04442C93.9006 8.26097 93.601 7.31365 93.601 6.17478H92.5046C92.5046 7.5183 92.8627 8.70139 93.5985 9.69637L94.48 9.04442ZM93.601 6.17478C93.601 4.88563 94.0717 3.84136 95.0265 3.00183L94.3025 2.17846C93.1083 3.22851 92.5046 4.57399 92.5046 6.17478H93.601ZM95.0265 3.00183C95.9847 2.1593 97.2197 1.72116 98.7771 1.72116V0.624759C96.9999 0.624759 95.4933 1.13141 94.3025 2.17846L95.0265 3.00183ZM98.7771 1.72116C99.921 1.72116 100.878 1.96321 101.669 2.42455L102.221 1.4775C101.234 0.901415 100.079 0.624759 98.7771 0.624759V1.72116ZM101.671 2.42578C102.468 2.88579 103.095 3.5654 103.552 4.48688L104.534 4.00016C103.99 2.90239 103.219 2.05367 102.219 1.47626L101.671 2.42578ZM103.748 3.78156L101.747 5.0598L102.337 5.98373L104.338 4.70549L103.748 3.78156ZM102.517 5.24798C102.035 4.41132 101.473 3.75554 100.82 3.31615L100.208 4.22611C100.684 4.54626 101.142 5.05757 101.567 5.79556L102.517 5.24798ZM100.825 3.3196C100.165 2.86501 99.4161 2.63938 98.5965 2.63938V3.73578C99.2034 3.73578 99.7332 3.89919 100.203 4.22265L100.825 3.3196ZM98.5965 2.63938C97.5673 2.63938 96.6801 2.95888 95.9815 3.62425L96.7376 4.41819C97.2061 3.97204 97.8102 3.73578 98.5965 3.73578V2.63938ZM95.9783 3.62728C95.2884 4.29492 94.9499 5.14991 94.9499 6.147H96.0463C96.0463 5.42123 96.2821 4.85903 96.7408 4.41516L95.9783 3.62728ZM94.9499 6.147C94.9499 6.99214 95.2138 7.74409 95.7457 8.3758L96.5844 7.66956C96.2271 7.24533 96.0463 6.74682 96.0463 6.147H94.9499ZM95.7457 8.3758C96.2645 8.99178 97.0374 9.50211 98.0163 9.92855L98.4542 8.92339C97.562 8.53471 96.9549 8.10952 96.5844 7.66956L95.7457 8.3758ZM98.0144 9.92771L100.918 11.206L101.36 10.2025L98.4561 8.92423L98.0144 9.92771Z" fill="black"/>
</svg>
